<svg width="16" height="16" viewBox="0 0 16 16" fill="none" xmlns="http://www.w3.org/2000/svg">
<path d="M8 16C12.4183 16 16 12.4183 16 8C16 3.58172 12.4183 0 8 0C3.58172 0 0 3.58172 0 8C0 12.4183 3.58172 16 8 16Z" fill="#8247E5"/>
<path d="M10.6616 6.2049C10.4778 6.09985 10.2414 6.09985 10.0314 6.2049L8.56074 7.07151L7.56281 7.623L6.11845 8.48961C5.93462 8.59466 5.69827 8.59466 5.48818 8.48961L4.35895 7.80682C4.17513 7.70178 4.04382 7.49169 4.04382 7.25534V5.94228C4.04382 5.7322 4.14887 5.52211 4.35895 5.3908L5.48818 4.73427C5.67201 4.62923 5.90836 4.62923 6.11845 4.73427L7.24768 5.41706C7.43151 5.52211 7.56281 5.7322 7.56281 5.96855V6.83516L8.56074 6.25742V5.36454C8.56074 5.15445 8.45569 4.94436 8.2456 4.81306L6.14471 3.57878C5.96088 3.47374 5.72453 3.47374 5.51444 3.57878L3.36103 4.83932C3.15094 4.94436 3.0459 5.15445 3.0459 5.36454V7.83309C3.0459 8.04317 3.15094 8.25326 3.36103 8.38457L5.48818 9.61884C5.67201 9.72389 5.90836 9.72389 6.11845 9.61884L7.56281 8.77849L8.56074 8.20074L10.0051 7.36039C10.1889 7.25534 10.4253 7.25534 10.6354 7.36039L11.7646 8.01691C11.9484 8.12196 12.0797 8.33205 12.0797 8.5684V9.88145C12.0797 10.0915 11.9747 10.3016 11.7646 10.4329L10.6616 11.0895C10.4778 11.1945 10.2414 11.1945 10.0314 11.0895L8.90213 10.4329C8.7183 10.3279 8.587 10.1178 8.587 9.88145V9.0411L7.58907 9.61884V10.4855C7.58907 10.6955 7.69412 10.9056 7.90421 11.0369L10.0314 12.2712C10.2152 12.3763 10.4515 12.3763 10.6616 12.2712L12.7888 11.0369C12.9726 10.9319 13.1039 10.7218 13.1039 10.4855V7.99065C13.1039 7.78056 12.9989 7.57047 12.7888 7.43917L10.6616 6.2049Z" fill="white"/>
</svg>
