<svg width="16" height="16" viewBox="0 0 16 16" fill="none" xmlns="http://www.w3.org/2000/svg">
<path d="M8 16C12.4183 16 16 12.4183 16 8C16 3.58172 12.4183 0 8 0C3.58172 0 0 3.58172 0 8C0 12.4183 3.58172 16 8 16Z" fill="#103F68"/>
<path d="M7.99 2.50879L12.75 5.25029V10.7503L7.9955 13.4998L7.957 13.4903L3.25 10.7503V5.25029L7.957 2.50879H7.99V2.50879ZM7.9745 3.07779L3.75 5.53779V10.4628L7.974 12.9223L8.49 12.6238L12.25 10.4613V5.53879L8.49 3.36379L7.9745 3.07779V3.07779ZM4.4045 8.38279L5.655 7.44779L6.7605 8.15379V9.42379L7.597 10.2298L7.5965 10.6078L6.7905 11.3628H6.11L4.405 8.38279H4.4045ZM8.356 10.6088L8.3545 10.2288L9.188 9.42379V8.15379L10.2815 7.43879L11.5295 8.38329L9.833 11.3543H9.161L8.356 10.6088ZM7.171 8.15379L6.764 7.08829H9.183L8.784 8.15379L8.902 9.34479L7.9685 9.34679L7.046 9.34829L7.171 8.15379V8.15379ZM7.9685 6.79629L5.6695 6.79529L6.097 4.88529H9.829L10.279 6.79779L7.9685 6.79629Z" fill="white"/>
</svg>
