<svg width="19" height="21" viewBox="0 0 19 21" fill="none" xmlns="http://www.w3.org/2000/svg">
<path d="M13.0039 0.994172C12.8469 0.995342 12.6923 1.03348 12.5527 1.1055C11.8948 1.43445 11.3706 1.90335 10.9668 2.38284C10.7263 2.66846 10.624 2.97199 10.4727 3.2637C9.97543 3.39909 8.80932 3.76095 7.43164 4.85355C5.79245 6.15355 4.16618 8.46562 4.02734 12.0254C3.91308 12.012 3.7967 12 3.66797 12C1.97697 12 0 13.0645 0 16.0625C0 18.7395 2.29 21 5 21C7.36 21 10 18.8885 10 16.0625C10 13.0825 7.80603 12 6.33203 12C6.22187 12 6.12443 12.0119 6.02539 12.0215C6.1529 9.07013 7.40326 7.42761 8.67383 6.41995C8.82762 6.29799 8.98005 6.18797 9.13086 6.08597C8.70872 9.07562 10.0219 11.4987 11.3301 13.0703C11.7529 13.9012 12 14.8968 12 16.0508C12 17.2708 11.6809 18.3801 11.1309 19.3301C11.9709 19.7701 12.9096 20 13.8496 20C14.7896 20 15.7305 19.7693 16.5605 19.2793C17.7105 18.6093 18.5491 17.4193 18.8691 16.0293C19.1791 14.6493 18.9397 13.2707 18.1797 12.1407C16.4397 9.53066 13.8491 9.73003 12.5391 10.5C12.38 10.5933 12.2452 10.6903 12.125 10.7891C11.4811 9.80487 11.0047 8.6348 11.0273 7.22659C11.9991 8.05925 13.5036 8.09177 14.5801 7.90628C14.8801 7.85428 15.0634 7.56337 14.9824 7.27738C14.7754 6.55037 14.2943 5.22717 13.4023 4.49417C12.9902 4.15595 12.6874 3.93885 12.4316 3.76566C12.4565 3.73284 12.4689 3.70417 12.4961 3.67191C12.7538 3.3659 13.1052 3.06561 13.4473 2.89456C13.6517 2.79568 13.8164 2.63017 13.9143 2.42524C14.0121 2.22031 14.0374 1.98818 13.9858 1.76702C13.9342 1.54586 13.8088 1.34885 13.6304 1.20839C13.4519 1.06792 13.231 0.992377 13.0039 0.994172Z" fill="#B3BAD1"/>
</svg>
