<svg width="20" height="18" viewBox="0 0 20 18" fill="none" xmlns="http://www.w3.org/2000/svg">
<path d="M3.69998 9L5.49998 5.4V4.5H2.79998V5.4H4.59998L2.79998 9M7.29998 9L9.09998 5.4V4.5H6.39998V5.4H8.19998L6.39998 9M10.9 9L12.7 5.4V4.5H9.99998V5.4H11.8L9.99998 9M18.1 0C17.11 0 16.3 0.81 16.3 1.8C16.3 2.43 16.66 3.06 17.2 3.33V13.5H14.5V11.7C15.04 11.7 15.4 11.34 15.4 10.8V2.7C15.4 2.16 15.04 1.8 14.5 1.8H11.08C10.36 0.72 9.09998 0 7.74998 0C6.39998 0 5.13998 0.72 4.41998 1.8H0.999976C0.459976 1.8 0.0999756 2.16 0.0999756 2.7V10.8C0.0999756 11.34 0.459976 11.7 0.999976 11.7V17.1C0.999976 17.5971 1.40292 18 1.89998 18H13.6C14.097 18 14.5 17.5971 14.5 17.1V15.3H17.2C18.19 15.3 19 14.49 19 13.5V3.33C19.54 3.06 19.9 2.43 19.9 1.8C19.9 0.81 19.09 0 18.1 0ZM10.9 15.3H4.59998V13.5H10.9V15.3ZM13.6 9.9H1.89998V3.6H13.6V9.9Z" fill="#11FFBD"/>
</svg>
