<svg width="18" height="19" viewBox="0 0 18 19" fill="none" xmlns="http://www.w3.org/2000/svg">
<path d="M6.30009 0.950439C4.81964 0.950439 3.6002 2.16988 3.6002 3.65033C3.6002 3.96698 3.66675 4.2669 3.76894 4.55029H1.91277C0.953411 4.55029 0.0812212 5.25032 0.00562431 6.20608C-0.0510733 6.93145 0.326138 7.56575 0.900314 7.90054V16.2498C0.900314 17.2398 1.71028 18.0497 2.70024 18.0497H8.10001V9.0501C8.10001 8.55332 8.5032 8.15014 8.99998 8.15014C9.49676 8.15014 9.89994 8.55332 9.89994 9.0501V18.0497H15.2997C16.2897 18.0497 17.0996 17.2398 17.0996 16.2498V7.90054C17.6738 7.56575 18.051 6.93145 17.9943 6.20608C17.9187 5.25032 17.0465 4.55029 16.0872 4.55029H14.231C14.3332 4.2669 14.3998 3.96698 14.3998 3.65033C14.3998 2.16988 13.1803 0.950439 11.6999 0.950439C11.0081 0.950439 10.3799 1.22415 9.89994 1.65881V1.63947L9.79447 1.74494L8.99998 2.53944L8.20548 1.74494L8.10001 1.63947V1.65881C7.62002 1.22415 6.9918 0.950439 6.30009 0.950439ZM6.30009 2.75036C6.80778 2.75036 7.20005 3.14263 7.20005 3.65033C7.20005 4.15802 6.80778 4.55029 6.30009 4.55029C5.79239 4.55029 5.40013 4.15802 5.40013 3.65033C5.40013 3.14263 5.79239 2.75036 6.30009 2.75036ZM11.6999 2.75036C12.2076 2.75036 12.5998 3.14263 12.5998 3.65033C12.5998 4.15802 12.2076 4.55029 11.6999 4.55029C11.1922 4.55029 10.7999 4.15802 10.7999 3.65033C10.7999 3.14263 11.1922 2.75036 11.6999 2.75036Z" fill="#11FFBD"/>
</svg>
