<svg width="24" height="25" viewBox="0 0 24 25" fill="none" xmlns="http://www.w3.org/2000/svg">
<path d="M12.0195 2.10817C11.5774 2.10735 11.1297 2.13573 10.6758 2.19411C6.10379 2.78211 2.45397 6.5953 2.04297 11.1863C1.46297 17.6733 7.08054 23.0223 13.6445 21.9773C17.7755 21.3193 21.1228 18.0153 21.8438 13.8953C22.1568 12.1073 21.9891 10.3905 21.4531 8.8445C21.2131 8.1525 20.3442 7.93492 19.8262 8.45192L19.7734 8.50466C19.5114 8.76666 19.4425 9.1537 19.5625 9.5027C20.0275 10.8477 20.1458 12.3527 19.7988 13.9187C19.1208 16.9717 16.6121 19.3936 13.5371 19.9656C7.90611 21.0136 3.06935 16.1563 4.15235 10.5203C4.74935 7.41328 7.2369 4.90114 10.3379 4.27614C12.8211 3.77532 15.144 4.43576 16.8945 5.79958L15.4648 7.22927C14.2801 6.38299 12.7832 5.94813 11.1719 6.16481C8.56488 6.51481 6.4325 8.62426 6.0625 11.2293C5.4925 15.2453 8.90383 18.6398 12.9238 18.0398C15.0438 17.7228 16.8375 16.2059 17.6035 14.2039C17.7775 13.7499 17.8883 13.3049 17.9473 12.8699C18.0753 11.9269 16.9054 11.3737 16.2324 12.0457C16.0704 12.2087 15.9783 12.427 15.9473 12.655C15.6393 14.908 13.4713 16.5669 11.0313 15.9949C9.60225 15.6599 8.44433 14.4991 8.11133 13.0691C7.50133 10.4431 9.478 8.10817 12 8.10817C12.7422 8.10817 13.4328 8.31474 14.0254 8.66872L12.5156 10.1785C12.3476 10.1327 12.1742 10.1091 12 10.1082C11.4696 10.1082 10.9609 10.3189 10.5858 10.694C10.2107 11.069 10 11.5777 10 12.1082C10 12.6386 10.2107 13.1473 10.5858 13.5224C10.9609 13.8975 11.4696 14.1082 12 14.1082C12.5304 14.1082 13.0391 13.8975 13.4142 13.5224C13.7893 13.1473 14 12.6386 14 12.1082C13.9999 11.9334 13.9769 11.7594 13.9316 11.5906L21.293 4.22927C21.684 3.83927 21.684 3.2062 21.293 2.8152C20.903 2.4242 20.2699 2.4242 19.8789 2.8152L18.3164 4.3777C16.5974 2.97142 14.4124 2.11264 12.0195 2.10817Z" fill="#B3BAD1"/>
</svg>
