<svg width="32" height="32" viewBox="0 0 32 32" fill="none" xmlns="http://www.w3.org/2000/svg">
<g clip-path="url(#clip0_202_1766)">
<path d="M31.4869 19.8939C29.35 28.4654 20.6685 33.6819 12.0959 31.5444C3.52701 29.4075 -1.68944 20.7254 0.448415 12.1546C2.58439 3.58214 11.2659 -1.6347 19.8358 0.502212C28.4077 2.63913 33.6239 11.3222 31.4867 19.8941L31.4869 19.8939H31.4869Z" fill="#F7931A"/>
<path d="M23.05 13.7204C23.3685 11.5912 21.7474 10.4466 19.5307 9.68311L20.2498 6.79886L18.4941 6.36137L17.7941 9.16969C17.3325 9.05457 16.8585 8.94609 16.3874 8.83856L17.0925 6.01171L15.3378 5.57422L14.6183 8.45754C14.2364 8.37057 13.8612 8.28462 13.4972 8.19406L13.4993 8.18499L11.0781 7.58037L10.611 9.45561C10.611 9.45561 11.9136 9.7542 11.8862 9.77258C12.5971 9.95003 12.7257 10.4207 12.7044 10.7937L11.8852 14.0796C11.9342 14.092 11.9977 14.11 12.0678 14.1381C12.0092 14.1236 11.9469 14.1077 11.8822 14.0922L10.734 18.6952C10.6471 18.9112 10.4266 19.2354 9.92952 19.1123C9.94712 19.1378 8.65343 18.7939 8.65343 18.7939L7.78174 20.8036L10.0665 21.3732C10.4916 21.4798 10.9081 21.5913 11.3183 21.6962L10.5918 24.6135L12.3455 25.051L13.065 22.1646C13.5441 22.2947 14.009 22.4147 14.4642 22.5278L13.7471 25.4005L15.5029 25.838L16.2294 22.9261C19.2233 23.4927 21.4744 23.2643 22.422 20.5563C23.1855 18.3761 22.384 17.1185 20.8089 16.2984C21.9561 16.0339 22.8202 15.2793 23.0506 13.7207L23.0501 13.7203L23.05 13.7204ZM19.0386 19.3455C18.496 21.5258 14.8251 20.3472 13.6349 20.0517L14.5991 16.1867C15.7891 16.4838 19.6056 17.0718 19.0386 19.3455H19.0386ZM19.5815 13.6889C19.0866 15.672 16.0313 14.6645 15.0402 14.4174L15.9143 10.9121C16.9054 11.1592 20.0972 11.6203 19.5817 13.6889H19.5815Z" fill="white"/>
</g>
<defs>
<clipPath id="clip0_202_1766">
<rect width="32" height="32" fill="white"/>
</clipPath>
</defs>
</svg>
