<svg width="10" height="14" viewBox="0 0 10 14" fill="none" xmlns="http://www.w3.org/2000/svg">
<path d="M9.89329 5.7625C10.0895 4.4525 9.09142 3.74813 7.72767 3.27813L8.17017 1.50312L7.09017 1.23438L6.65892 2.9625C6.37517 2.89125 6.08392 2.825 5.79329 2.75875L6.22767 1.01938L5.14767 0.75L4.70517 2.52437C4.47017 2.47062 4.23892 2.41813 4.01517 2.36188L4.01642 2.35625L2.52642 1.98438L2.23892 3.13812C2.23892 3.13812 3.04079 3.32188 3.02392 3.33313C3.46142 3.4425 3.54017 3.73187 3.52704 3.96187L3.02329 5.98375C3.05329 5.99125 3.09204 6.0025 3.13579 6.01937L3.02142 5.99125L2.31517 8.82375C2.26142 8.95625 2.12579 9.15562 1.81954 9.08C1.83079 9.09562 1.03454 8.88437 1.03454 8.88437L0.498291 10.1206L1.90454 10.4713C2.16579 10.5369 2.42204 10.6056 2.67392 10.67L2.22704 12.465L3.30642 12.7337L3.74892 10.9587C4.04392 11.0381 4.33017 11.1119 4.61017 11.1819L4.16892 12.9494L5.24892 13.2181L5.69579 11.4269C7.53829 11.7756 8.92329 11.635 9.50642 9.96875C9.97642 8.6275 9.48329 7.85313 8.51392 7.34875C9.22017 7.18625 9.75142 6.72188 9.89329 5.7625ZM7.42454 9.22375C7.09142 10.5656 4.83204 9.84 4.09954 9.65812L4.69329 7.28C5.42579 7.46312 7.77392 7.825 7.42454 9.22375ZM7.75892 5.74312C7.45454 6.96375 5.57454 6.34313 4.96517 6.19125L5.50267 4.035C6.11204 4.18687 8.07642 4.47 7.75892 5.74312Z" fill="white"/>
</svg>
