<svg width="21" height="21" viewBox="0 0 21 21" fill="none" xmlns="http://www.w3.org/2000/svg">
<path d="M10.5 0C4.986 0 0.5 4.038 0.5 9C0.5 14.259 5.54 18.508 11.5 17.953V20C11.52 19.993 11.5 21 12.5 20.451L13.04 20.105C14.172 19.379 19.847 15.477 20.443 9.955C20.48 9.641 20.5 9.322 20.5 9C20.5 4.038 16.014 0 10.5 0ZM7 10H6C5.724 10 5.5 9.776 5.5 9.5V8.5C5.5 8.224 5.724 8 6 8H7C7.276 8 7.5 8.224 7.5 8.5V9.5C7.5 9.776 7.276 10 7 10ZM11 10H10C9.724 10 9.5 9.776 9.5 9.5V8.5C9.5 8.224 9.724 8 10 8H11C11.276 8 11.5 8.224 11.5 8.5V9.5C11.5 9.776 11.276 10 11 10ZM15 10H14C13.724 10 13.5 9.776 13.5 9.5V8.5C13.5 8.224 13.724 8 14 8H15C15.276 8 15.5 8.224 15.5 8.5V9.5C15.5 9.776 15.276 10 15 10Z" fill="#B3BAD1"/>
</svg>
