<svg width="33" height="32" viewBox="0 0 33 32" fill="none" xmlns="http://www.w3.org/2000/svg">
<g clip-path="url(#clip0_202_235)">
<path d="M16.4868 32C25.3233 32 32.4868 24.8366 32.4868 16C32.4868 7.16344 25.3233 0 16.4868 0C7.6502 0 0.486755 7.16344 0.486755 16C0.486755 24.8366 7.6502 32 16.4868 32Z" fill="#F4B731"/>
<path fill-rule="evenodd" clip-rule="evenodd" d="M9.76376 8H16.3158C20.3008 8 23.3218 10.116 24.4458 13.194H26.4868V15.055H24.8758C24.9068 15.349 24.9228 15.649 24.9228 15.953V15.999C24.9228 16.341 24.9028 16.679 24.8628 17.009H26.4868V18.869H24.4068C23.2538 21.905 20.2568 24 16.3168 24H9.76376V18.869H7.48676V17.009H9.76376V15.055H7.48676V13.195H9.76376V8V8ZM11.5948 18.869V22.331H16.3148C19.2288 22.331 21.3928 20.944 22.3998 18.869H11.5948V18.869ZM22.9608 17.009H11.5948V15.055H22.9648C23.0058 15.362 23.0278 15.677 23.0278 15.999V16.044C23.0278 16.373 23.0048 16.694 22.9608 17.008V17.009ZM16.3168 9.665C19.2428 9.665 21.4138 11.089 22.4148 13.193H11.5948V9.666H16.3148L16.3168 9.665Z" fill="white"/>
</g>
<defs>
<clipPath id="clip0_202_235">
<rect width="32" height="32" fill="white" transform="translate(0.486755)"/>
</clipPath>
</defs>
</svg>
