<svg width="18" height="18" viewBox="0 0 18 18" fill="none" xmlns="http://www.w3.org/2000/svg">
<path d="M12.9999 11.0001H12.2099L11.9299 10.7301C13.1299 9.33014 13.7499 7.42014 13.4099 5.39014C12.9399 2.61014 10.6199 0.390137 7.81989 0.0501373C3.58989 -0.469863 0.0298932 3.09014 0.549893 7.32014C0.889893 10.1201 3.10989 12.4401 5.88989 12.9101C7.91989 13.2501 9.82989 12.6301 11.2299 11.4301L11.4999 11.7101V12.5001L15.7499 16.7501C16.1599 17.1601 16.8299 17.1601 17.2399 16.7501C17.6499 16.3401 17.6499 15.6701 17.2399 15.2601L12.9999 11.0001ZM6.99989 11.0001C4.50989 11.0001 2.49989 8.99014 2.49989 6.50014C2.49989 4.01014 4.50989 2.00014 6.99989 2.00014C9.48989 2.00014 11.4999 4.01014 11.4999 6.50014C11.4999 8.99014 9.48989 11.0001 6.99989 11.0001Z" fill="#B3BAD1"/>
</svg>
