<svg width="35" height="30" viewBox="0 0 35 30" fill="none" xmlns="http://www.w3.org/2000/svg">
<g clip-path="url(#clip0_202_232)">
<path fill-rule="evenodd" clip-rule="evenodd" d="M6.31455 0.147343L0.0264013 13.3556C0.00247309 13.4047 -0.0051096 13.4602 0.0047621 13.514C0.0146338 13.5677 0.041442 13.6169 0.0812663 13.6543L17.064 29.9279C17.1123 29.9742 17.1765 30 17.2434 30C17.3102 30 17.3744 29.9742 17.4227 29.9279L34.4054 13.6553C34.4453 13.6179 34.4721 13.5687 34.482 13.515C34.4918 13.4612 34.4842 13.4057 34.4603 13.3566L28.1722 0.148359C28.1519 0.104 28.1192 0.066422 28.0782 0.0401167C28.0371 0.0138114 27.9893 -0.000108815 27.9405 1.96624e-05H6.54823C6.49922 -0.000590115 6.45107 0.0129948 6.40961 0.0391357C6.36814 0.0652765 6.33513 0.102857 6.31455 0.147343V0.147343V0.147343Z" fill="#50AF95"/>
<path fill-rule="evenodd" clip-rule="evenodd" d="M19.4252 14.7124C19.3033 14.7216 18.6734 14.7591 17.2682 14.7591C16.1506 14.7591 15.3571 14.7256 15.0787 14.7124C10.7596 14.5224 7.53579 13.7706 7.53579 12.8704C7.53579 11.9702 10.7596 11.2193 15.0787 11.0263V13.9636C15.3612 13.9839 16.1699 14.0317 17.2875 14.0317C18.6287 14.0317 19.3003 13.9758 19.4212 13.9646V11.0283C23.7311 11.2203 26.9479 11.9722 26.9479 12.8704C26.9479 13.7685 23.7322 14.5204 19.4212 14.7114L19.4252 14.7124ZM19.4252 10.7245V8.09609H25.4401V4.08789H9.06388V8.09609H15.0777V10.7235C10.1896 10.9481 6.51367 11.9163 6.51367 13.0766C6.51367 14.2369 10.1896 15.2042 15.0777 15.4297V23.8525H19.4242V15.4267C24.3011 15.2021 27.971 14.2349 27.971 13.0756C27.971 11.9163 24.3042 10.9491 19.4242 10.7235L19.4252 10.7245Z" fill="white"/>
</g>
<defs>
<clipPath id="clip0_202_232">
<rect width="34.4867" height="30" fill="white"/>
</clipPath>
</defs>
</svg>
