<svg width="32" height="32" viewBox="0 0 32 32" fill="none" xmlns="http://www.w3.org/2000/svg">
<g clip-path="url(#clip0_202_230)">
<path d="M16 32C24.8667 32 32 24.8667 32 16C32 7.13328 24.8667 0 16 0C7.13328 0 0 7.13328 0 16C0 24.8667 7.13328 32 16 32Z" fill="#396FF1"/>
<path d="M20.3998 18.5328C20.3998 16.1995 18.9998 15.3995 16.1998 15.0663C14.1998 14.7995 13.7998 14.2663 13.7998 13.3328C13.7998 12.3994 14.4666 11.7995 15.7998 11.7995C16.9998 11.7995 17.6666 12.1995 17.9998 13.1995C18.0666 13.3995 18.2666 13.5328 18.4666 13.5328H19.5331C19.7998 13.5328 19.9998 13.3328 19.9998 13.0663V12.9995C19.7331 11.5328 18.5331 10.3995 16.9998 10.2663V8.66625C16.9998 8.39953 16.7998 8.19953 16.4666 8.13281H15.4666C15.1998 8.13281 14.9998 8.33281 14.9331 8.66625V10.1995C12.9331 10.4663 11.6666 11.7995 11.6666 13.4663C11.6666 15.6663 12.9998 16.5328 15.7998 16.8663C17.6666 17.1995 18.2666 17.5995 18.2666 18.6663C18.2666 19.733 17.3331 20.4663 16.0666 20.4663C14.3331 20.4663 13.7331 19.7328 13.5331 18.7328C13.4666 18.4662 13.2666 18.3328 13.0666 18.3328H11.9331C11.6666 18.3328 11.4666 18.5328 11.4666 18.7995V18.8663C11.7331 20.5328 12.7998 21.7328 14.9998 22.0662V23.6662C14.9998 23.9328 15.1998 24.1328 15.5331 24.1995H16.5331C16.7998 24.1995 16.9998 23.9995 17.0666 23.6662V22.0662C19.0666 21.7328 20.3998 20.3328 20.3998 18.5328V18.5328Z" fill="white"/>
<path d="M12.5999 25.5336C7.39989 23.667 4.73318 17.867 6.66662 12.7336C7.66662 9.93355 9.86661 7.80027 12.5999 6.80027C12.8666 6.66699 12.9999 6.46699 12.9999 6.13355V5.20027C12.9999 4.93355 12.8666 4.73355 12.5999 4.66699C12.5332 4.66699 12.3999 4.66699 12.3332 4.73355C5.9999 6.73355 2.53318 13.467 4.53318 19.8003C5.73318 23.5336 8.59989 26.4003 12.3332 27.6003C12.5999 27.7336 12.8666 27.6003 12.9332 27.3336C12.9999 27.267 12.9999 27.2003 12.9999 27.067V26.1336C12.9999 25.9336 12.7999 25.667 12.5999 25.5336ZM19.6666 4.73355C19.3999 4.60027 19.1332 4.73355 19.0666 5.00027C18.9999 5.06699 18.9999 5.13355 18.9999 5.26699V6.20027C18.9999 6.46699 19.1999 6.73355 19.3999 6.86699C24.5999 8.73355 27.2666 14.5336 25.3332 19.667C24.3332 22.467 22.1332 24.6003 19.3999 25.6003C19.1332 25.7336 18.9999 25.9336 18.9999 26.267V27.2003C18.9999 27.467 19.1332 27.667 19.3999 27.7336C19.4666 27.7336 19.5999 27.7336 19.6666 27.667C25.9999 25.667 29.4666 18.9336 27.4666 12.6003C26.2666 8.80027 23.3332 5.93355 19.6666 4.73355V4.73355Z" fill="white"/>
</g>
<defs>
<clipPath id="clip0_202_230">
<rect width="32" height="32" rx="16" fill="white"/>
</clipPath>
</defs>
</svg>
